<?xml version="1.0" standalone="no"?>
<!DOCTYPE svg PUBLIC "-//W3C//DTD SVG 20010904//EN"
 "http://www.w3.org/TR/2001/REC-SVG-20010904/DTD/svg10.dtd">
<svg version="1.0" xmlns="http://www.w3.org/2000/svg"
 width="444.000000pt" height="414.000000pt" viewBox="0 0 444.000000 414.000000"
 preserveAspectRatio="xMidYMid meet">

<g transform="translate(0.000000,414.000000) scale(0.100000,-0.100000)"
fill="#000000" stroke="none">
<path d="M2075 4008 c-210 -12 -437 -61 -590 -128 -22 -10 -67 -29 -100 -43
-83 -35 -262 -138 -330 -189 -74 -57 -181 -147 -225 -190 -61 -59 -160 -168
-160 -175 0 -3 -15 -23 -34 -46 -76 -95 -206 -311 -206 -345 0 -6 -4 -12 -8
-14 -10 -4 -64 -143 -87 -223 -10 -33 -21 -69 -26 -80 -7 -18 -29 -115 -34
-155 -1 -8 -5 -22 -8 -30 -7 -21 -28 -209 -27 -245 0 -16 1 -70 1 -120 -1
-126 42 -429 69 -490 5 -11 11 -33 15 -48 11 -51 93 -251 136 -332 146 -275
350 -510 589 -678 52 -37 104 -74 115 -82 10 -8 25 -15 31 -15 7 0 19 -6 26
-13 40 -38 428 -201 428 -180 0 3 6 1 13 -5 17 -13 152 -42 267 -57 162 -21
549 -13 610 12 8 3 20 7 25 8 60 8 115 20 135 28 14 6 30 11 35 12 21 3 71 18
80 25 6 3 29 12 53 19 23 6 75 27 114 46 40 19 78 35 85 35 7 0 13 4 13 9 0 4
20 16 45 25 25 10 45 22 45 27 0 5 5 9 11 9 22 0 249 160 257 181 2 5 8 9 14
9 17 0 221 212 289 300 73 96 107 150 175 277 73 136 74 137 74 155 0 9 4 19
9 22 5 3 12 18 16 33 3 16 13 42 20 58 73 164 117 499 103 770 -8 148 -60 419
-97 500 -5 11 -23 58 -41 104 -17 46 -48 115 -68 154 -21 38 -43 81 -51 95
-13 26 -98 153 -144 217 -92 128 -294 314 -467 431 -70 48 -263 156 -275 155
-3 -1 -33 12 -67 28 -35 15 -85 35 -113 44 -124 40 -187 57 -206 57 -11 0 -48
7 -82 15 -86 21 -297 31 -452 23z m430 -149 c435 -79 820 -304 1103 -644 89
-108 262 -398 262 -441 0 -8 5 -14 10 -14 6 0 9 -3 8 -7 -3 -10 22 -85 32 -98
8 -10 45 -155 77 -300 26 -116 25 -486 0 -600 -37 -163 -64 -265 -81 -305 -17
-41 -28 -71 -32 -85 -8 -33 -120 -247 -154 -296 -165 -237 -350 -419 -564
-556 -135 -86 -414 -204 -551 -233 -38 -8 -49 -10 -105 -24 -19 -5 -163 -18
-305 -27 -35 -3 -309 23 -350 32 -115 27 -262 68 -308 87 -161 67 -255 116
-377 198 -304 203 -530 483 -673 834 -39 95 -87 248 -87 277 0 11 -3 23 -7 27
-4 3 -8 14 -9 24 -1 9 -5 42 -9 72 -3 30 -8 63 -11 73 -7 22 -7 382 0 404 3
10 7 43 10 73 11 103 55 264 113 410 36 90 41 99 94 198 48 90 38 74 159 246
51 72 210 230 308 306 42 33 82 63 87 68 78 60 369 212 408 212 6 0 25 7 41
15 58 30 302 84 436 95 136 12 347 2 475 -21z"/>
<path d="M2805 2960 c-85 -13 -216 -85 -223 -123 -4 -19 49 -93 115 -162 21
-22 58 -65 83 -95 82 -101 175 -200 187 -200 23 1 82 75 108 136 66 154 57
292 -26 380 -50 53 -146 78 -244 64z m143 -137 c13 -8 32 -28 43 -46 25 -39
21 -131 -7 -190 l-18 -38 -31 34 c-30 34 -119 136 -162 186 -38 44 -31 56 39
70 51 10 104 4 136 -16z"/>
<path d="M2290 2574 c-107 -107 -197 -194 -200 -194 -3 0 -42 -37 -86 -82 -45
-46 -175 -173 -290 -283 -420 -402 -390 -370 -402 -428 -6 -29 -18 -90 -26
-137 -14 -73 -21 -124 -42 -282 -2 -14 2 -30 9 -36 11 -9 146 -3 292 13 28 3
79 8 115 11 64 6 66 7 135 72 82 78 584 563 732 707 57 55 166 161 244 236
155 151 153 146 96 211 -17 20 -48 56 -67 79 -34 42 -65 78 -185 214 -33 37
-64 74 -68 81 -4 8 -20 13 -35 13 -21 -1 -70 -45 -222 -195z m271 -16 c39 -50
115 -138 167 -194 30 -33 28 -48 -10 -84 -75 -71 -440 -422 -528 -508 -162
-159 -453 -438 -485 -464 -35 -29 -90 -40 -263 -52 l-73 -5 5 27 c11 60 19
128 17 140 -1 8 2 19 7 25 5 7 13 38 16 69 7 56 9 58 108 155 56 54 149 145
208 203 59 58 164 159 234 225 69 66 217 209 329 317 111 109 208 197 214 198
7 0 31 -24 54 -52z"/>
</g>
</svg>
